<svg xmlns="http://www.w3.org/2000/svg" width="600" height="600">
  <path
    style="stroke:black; stroke-width:3; fill:stroke:black; stroke-width:3; fill:green"
    d="M 362.516376 332.784523
       Q 356.909014 333.414057 351.131456 333.762842
       Q 345.635814 334.099934 340.013886 334.176852
       Q 334.608806 334.253985 329.116109 334.087025
       Q 326.040324 338.702211 322.717173 343.098026
       Q 319.334599 347.573916 315.721066 351.791655
       Q 312.010994 356.125209 308.085631 360.157532
       Q 314.134339 365.161632 320.540075 369.336147
       Q 327.441284 373.853128 334.637702 377.347155
       Q 342.535193 381.214058 350.640258 383.802722
       Q 354.904920 375.613363 357.670051 366.680703
       Q 360.273135 358.338751 361.484352 349.563426
       Q 362.641914 341.268515 362.516376 332.784523
       z"
  />
  <path
    style="stroke:black; stroke-width:3; fill:stroke:black; stroke-width:3; fill:green"
    d="M 385.608652 328.917062
       Q 392.038142 327.469757 398.107704 325.638038
       Q 404.838408 323.639311 411.104460 321.196258
       Q 418.179128 318.488504 424.643756 315.255337
       Q 430.260002 321.859998 434.717467 329.017876
       Q 439.898910 337.147808 443.524306 345.849373
       Q 447.856623 355.877265 450.057253 366.432985
       Q 438.145074 376.088238 424.040519 381.671034
       Q 412.314242 386.523771 399.608778 388.235118
       Q 388.839199 389.823206 377.717418 389.031144
       Q 381.431560 378.969832 383.505864 368.247242
       Q 385.451854 358.383930 385.943181 348.160828
       Q 386.425812 338.605609 385.608652 328.917062
       z"
  />
  <path
    style="stroke:black; stroke-width:3; fill:stroke:black; stroke-width:3; fill:green"
    d="M 300.000000 503.746305
       Q 300.000000 494.521458 300.000000 483.040098
       Q 300.000000 474.447838 300.000000 464.434949
       Q 300.000000 456.546358 300.000000 447.684322
       Q 309.928321 443.879342 318.923261 438.298345
       Q 327.216346 433.213573 334.499126 426.760206
       Q 341.241076 420.845190 346.969368 413.893234
       Q 357.467179 418.565611 368.011768 421.415296
       Q 380.663308 425.040302 393.136065 426.087244
       Q 408.658121 427.722549 423.469355 425.510502
       Q 415.608823 445.300654 400.217987 461.568690
       Q 382.578323 480.587697 357.599398 491.630340
       Q 330.425244 503.746305 300.000000 503.746305
       z"
  />
  <path
    style="stroke:black; stroke-width:3; fill:stroke:black; stroke-width:3; fill:green"
    d="M 300.000000 545.973246
       Q 300.000000 558.579915 300.000000 552.343813
       Q 300.000000 546.523626 300.000000 495.134355
       Q 300.000000 422.020884 300.000000 301.556049
       Q 404.359689 241.323631 467.624680 204.894709
       Q 512.082567 179.305807 517.027192 176.564449
       Q 522.351528 173.581543 511.336946 180.046459
       Q 539.833655 229.388089 538.499744 282.986449
       Q 537.804848 327.895778 516.878894 362.241500
       Q 501.579958 388.917747 477.474548 404.771681
       Q 475.865887 433.441280 460.463307 459.924252
       Q 441.238157 495.099570 402.717990 518.090542
       Q 356.993419 545.973246 300.000000 545.973246
       z"
  />
  <path
    style="stroke:black; stroke-width:3; fill:stroke:black; stroke-width:3; fill:green"
    d="M 385.457857 328.941693
       Q 381.644937 329.813922 377.704483 330.541652
       Q 373.956499 331.239956 370.099703 331.803678
       Q 366.410995 332.347471 362.629726 332.765030
       Q 362.641914 341.268515 361.484352 349.563426
       Q 360.273135 358.338751 357.670051 366.680703
       Q 354.904920 375.613363 350.640258 383.802722
       Q 354.861063 385.168631 359.107911 386.182668
       Q 363.612256 387.272818 368.122698 387.966164
       Q 372.930220 388.723414 377.717418 389.031144
       Q 381.431560 378.969832 383.505864 368.247242
       Q 385.451854 358.383930 385.943181 348.160828
       Q 386.425812 338.605609 385.608652 328.917062
       z"
  />
  <path
    style="stroke:black; stroke-width:3; fill:stroke:black; stroke-width:3; fill:green"
    d="M 300.000000 545.418393
       Q 300.000000 540.958911 300.000000 532.652157
       Q 300.000000 526.607427 300.000000 518.216695
       Q 300.000000 511.788889 300.000000 503.838233
       Q 330.425244 503.746305 357.599398 491.630340
       Q 382.578323 480.587697 400.217987 461.568690
       Q 415.608823 445.300654 423.469355 425.510502
       Q 432.011712 424.412160 440.194109 422.087693
       Q 449.537179 419.584411 458.287819 415.554564
       Q 468.363948 411.109089 477.474548 404.771681
       Q 475.865887 433.441280 460.463307 459.924252
       Q 441.238157 495.099570 402.717990 518.090542
       Q 356.993419 545.973246 300.000000 545.973246
       z"
  />
  <path
    style="stroke:black; stroke-width:3; fill:stroke:black; stroke-width:3; fill:green"
    d="M 347.075802 413.718916
       Q 350.529557 409.574553 353.573096 405.083895
       Q 356.488422 400.805548 359.006460 396.242013
       Q 361.425364 391.881034 363.461942 387.287381
       Q 373.591706 389.187389 383.542063 389.260545
       Q 395.099568 389.462226 406.169757 387.093284
       Q 419.305479 384.466320 431.199680 378.450173
       Q 431.710724 385.673415 431.148519 392.930263
       Q 430.596821 400.860108 428.778045 408.690129
       Q 426.859335 417.252250 423.469355 425.510502
       Q 408.658121 427.722549 393.136065 426.087244
       Q 380.663308 425.040302 368.011768 421.415296
       Q 357.467179 418.565611 346.969368 413.893234
       z"
  />
  <path
    style="stroke:black; stroke-width:3; fill:stroke:black; stroke-width:3; fill:green"
    d="M 510.853918 180.327963
       Q 506.940385 182.644704 499.690551 186.890930
       Q 494.405886 189.996519 487.086850 194.278591
       Q 481.472970 197.571134 474.538684 201.627092
       Q 489.670405 228.015671 492.738782 257.638502
       Q 495.640311 284.822542 487.943987 309.672423
       Q 481.509207 331.195116 468.245672 347.980973
       Q 471.597153 355.870557 473.705652 364.062954
       Q 476.241471 373.346326 477.157277 382.882377
       Q 478.377795 393.770260 477.474548 404.771681
       Q 501.579958 388.917747 516.878894 362.241500
       Q 537.804848 327.895778 538.499744 282.986449
       Q 539.833655 229.388089 511.336946 180.046459
       z"
  />
  <path
    style="stroke:black; stroke-width:3; fill:stroke:black; stroke-width:3; fill:green"
    d="M 468.245672 347.980973
       Q 462.764238 355.083443 456.281990 361.067456
       Q 450.384988 366.597190 443.766537 371.082353
       Q 437.737366 375.238374 431.199680 378.450173
       Q 431.710724 385.673415 431.148519 392.930263
       Q 430.596821 400.860108 428.778045 408.690129
       Q 426.859335 417.252250 423.469355 425.510502
       Q 432.011712 424.412160 440.194109 422.087693
       Q 449.537179 419.584411 458.287819 415.554564
       Q 468.363948 411.109089 477.474548 404.771681
       Q 478.377795 393.770260 477.157277 382.882377
       Q 476.241471 373.346326 473.705652 364.062954
       Q 471.597153 355.870557 468.245672 347.980973
       z"
  />
  <path
    style="stroke:black; stroke-width:3; fill:stroke:black; stroke-width:3; fill:orange"
    d="M 319.767160 140.837622
       Q 327.852003 148.091048 334.414820 156.927917
       Q 340.179345 164.484860 344.670690 173.103217
       Q 348.679585 180.604716 351.629134 188.831602
       Q 360.886434 192.229252 369.426899 197.175256
       Q 378.058133 202.172832 385.693847 208.599988
       Q 393.384995 215.073272 399.827380 222.796614
       Q 408.208713 215.503985 415.171415 208.570808
       Q 424.402215 199.467876 431.383367 190.951162
       Q 441.483615 178.936106 447.550210 168.058384
       Q 426.611262 148.780550 400.887976 139.942358
       Q 378.430044 132.029871 355.844053 133.171614
       Q 336.810232 133.872608 319.767160 140.837622
       z"
  />
  <path
    style="stroke:black; stroke-width:3; fill:stroke:black; stroke-width:3; fill:orange"
    d="M 227.369293 206.807479
       Q 218.458417 208.248837 209.938966 211.086137
       Q 200.681745 214.120788 192.105552 218.715363
       Q 182.747513 223.667661 174.462652 230.318267
       Q 166.733357 225.797143 159.846283 221.760868
       Q 151.113490 216.653056 143.611124 212.255080
       Q 133.598776 206.400207 125.542217 201.675242
       Q 140.754839 175.334812 164.860616 157.905999
       Q 186.938012 141.839400 212.274000 136.146465
       Q 234.099616 131.020155 255.223682 134.195617
       Q 245.962728 146.017890 239.680326 160.380908
       Q 234.406935 171.799563 231.276282 184.659831
       Q 228.522948 195.300587 227.369293 206.807479
       z"
  />
  <path
    style="stroke:black; stroke-width:3; fill:stroke:black; stroke-width:3; fill:orange"
    d="M 450.057253 366.432985
       Q 447.856623 355.877265 443.524306 345.849373
       Q 439.898910 337.147808 434.717467 329.017876
       Q 430.260002 321.859998 424.643756 315.255337
       Q 426.324735 305.534699 426.306905 295.662142
       Q 426.289765 285.685187 424.537470 275.857143
       Q 422.772921 265.958030 419.302187 256.516954
       Q 429.748165 252.799225 439.170594 250.125031
       Q 451.598705 246.558196 462.392974 244.643837
       Q 477.765938 241.758410 490.138444 241.799280
       Q 496.385573 269.593734 491.216306 296.344521
       Q 486.875500 319.801569 474.640902 338.866595
       Q 464.560424 355.070170 450.057253 366.432985
       z"
  />
  <path
    style="stroke:black; stroke-width:3; fill:stroke:black; stroke-width:3; fill:orange"
    d="M 511.336946 180.046459
       Q 522.351528 173.581543 517.027192 176.564449
       Q 512.082567 179.305807 467.624680 204.894709
       Q 404.359689 241.323631 300.000000 301.556049
       Q 195.640311 241.323631 132.375320 204.894709
       Q 87.917433 179.305807 82.972808 176.564449
       Q 77.648472 173.581543 88.663054 180.046459
       Q 117.159764 130.704830 164.218246 105.131773
       Q 203.433309 83.344004 243.584413 84.401665
       Q 274.285929 84.408574 300.000000 97.477134
       Q 325.714071 84.408574 356.415587 84.401665
       Q 396.566691 83.344004 435.781754 105.131773
       Q 482.840236 130.704830 511.336946 180.046459
       z"
  />
  <path
    style="stroke:black; stroke-width:3; fill:stroke:black; stroke-width:3; fill:orange"
    d="M 227.574047 206.803401
       Q 232.906216 205.911483 238.333080 205.547516
       Q 243.511578 205.187818 248.738177 205.314117
       Q 253.739434 205.424442 258.750672 205.981371
       Q 262.128680 196.190813 266.997341 187.465089
       Q 272.555106 177.278307 280.095951 168.798359
       Q 288.889287 158.652618 300.000000 151.279873
       Q 293.973358 147.183209 287.381982 144.000637
       Q 280.211833 140.470732 272.496055 138.090182
       Q 264.095097 135.428386 255.223682 134.195617
       Q 245.962728 146.017890 239.680326 160.380908
       Q 234.406935 171.799563 231.276282 184.659831
       Q 228.522948 195.300587 227.369293 206.807479
       z"
  />
  <path
    style="stroke:black; stroke-width:3; fill:stroke:black; stroke-width:3; fill:orange"
    d="M 510.853918 180.327963
       Q 506.940385 182.644704 499.690551 186.890930
       Q 494.405886 189.996519 487.086850 194.278591
       Q 481.472970 197.571134 474.538684 201.627092
       Q 459.245161 175.334812 435.139384 157.905999
       Q 413.061988 141.839400 387.726000 136.146465
       Q 365.900384 131.020155 344.776318 134.195617
       Q 339.585441 127.294235 333.511543 121.318934
       Q 326.704292 114.424919 318.869458 108.809367
       Q 310.013848 102.250583 300.000000 97.477134
       Q 325.714071 84.408574 356.415587 84.401665
       Q 396.566691 83.344004 435.781754 105.131773
       Q 482.840236 130.704830 511.336946 180.046459
       z"
  />
  <path
    style="stroke:black; stroke-width:3; fill:stroke:black; stroke-width:3; fill:orange"
    d="M 419.192018 256.326198
       Q 416.976291 250.262848 414.076897 244.496625
       Q 411.175235 238.725880 407.627068 233.328840
       Q 404.081682 227.936025 399.937549 222.987370
       Q 408.208713 215.503985 415.171415 208.570808
       Q 424.402215 199.467876 431.383367 190.951162
       Q 441.483615 178.936106 447.550210 168.058384
       Q 458.086012 177.734395 466.548701 189.457353
       Q 475.101173 201.302353 481.089037 214.633729
       Q 487.016052 227.826331 490.138444 241.799280
       Q 477.765938 241.758410 462.392974 244.643837
       Q 451.598705 246.558196 439.170594 250.125031
       Q 429.748165 252.799225 419.302187 256.516954
       z"
  />
  <path
    style="stroke:black; stroke-width:3; fill:stroke:black; stroke-width:3; fill:orange"
    d="M 89.146082 180.327963
       Q 93.059615 182.644704 100.309449 186.890930
       Q 105.594114 189.996519 112.913150 194.278591
       Q 118.527030 197.571134 125.461316 201.627092
       Q 140.754839 175.334812 164.860616 157.905999
       Q 186.938012 141.839400 212.274000 136.146465
       Q 234.099616 131.020155 255.223682 134.195617
       Q 260.414559 127.294235 266.488457 121.318934
       Q 273.295708 114.424919 281.130542 108.809367
       Q 289.986152 102.250583 300.000000 97.477134
       Q 274.285929 84.408574 243.584413 84.401665
       Q 203.433309 83.344004 164.218246 105.131773
       Q 117.159764 130.704830 88.663054 180.046459
       z"
  />
  <path
    style="stroke:black; stroke-width:3; fill:stroke:black; stroke-width:3; fill:orange"
    d="M 255.223682 134.195617
       Q 264.095097 135.428386 272.496055 138.090182
       Q 280.211833 140.470732 287.381982 144.000637
       Q 293.973358 147.183209 300.000000 151.279873
       Q 306.026642 147.183209 312.618018 144.000637
       Q 319.788167 140.470732 327.503945 138.090182
       Q 335.904903 135.428386 344.776318 134.195617
       Q 339.585441 127.294235 333.511543 121.318934
       Q 326.704292 114.424919 318.869458 108.809367
       Q 310.013848 102.250583 300.000000 97.477134
       Q 289.986152 102.250583 281.130542 108.809367
       Q 273.295708 114.424919 266.488457 121.318934
       Q 260.414559 127.294235 255.223682 134.195617
       z"
  />
  <path
    style="stroke:black; stroke-width:3; fill:stroke:black; stroke-width:3; fill:purple"
    d="M 236.455241 387.155949
       Q 233.415617 380.371844 231.243457 373.177132
       Q 229.177153 366.391235 227.918743 359.327505
       Q 226.710415 352.614479 226.253731 345.731668
       Q 220.504640 341.869272 215.276643 337.437896
       Q 209.769451 332.787088 204.905311 327.573023
       Q 199.739406 322.061983 195.361641 316.002992
       Q 188.536974 323.613761 183.455278 332.116931
       Q 177.455538 341.941798 173.926194 352.629718
       Q 169.583808 365.228284 168.800320 378.450173
       Q 180.694521 384.466320 193.830243 387.093284
       Q 204.900432 389.462226 216.457937 389.260545
       Q 226.408294 389.187389 236.455241 387.155949
       z"
  />
  <path
    style="stroke:black; stroke-width:3; fill:stroke:black; stroke-width:3; fill:purple"
    d="M 253.030632 413.893234
       Q 258.758924 420.845190 265.500874 426.760206
       Q 272.783654 433.213573 281.076739 438.298345
       Q 290.071679 443.879342 300.000000 447.684322
       Q 300.000000 456.546358 300.000000 464.434949
       Q 300.000000 474.447838 300.000000 483.040098
       Q 300.000000 494.521458 300.000000 503.746305
       Q 269.574756 503.746305 242.400602 491.630340
       Q 217.421677 480.587697 199.782013 461.568690
       Q 184.391177 445.300654 176.530645 425.510502
       Q 191.341879 427.722549 206.863935 426.087244
       Q 219.336692 425.040302 231.988232 421.415296
       Q 242.532821 418.565611 253.030632 413.893234
       z"
  />
  <path
    style="stroke:black; stroke-width:3; fill:stroke:black; stroke-width:3; fill:purple"
    d="M 125.542217 201.675242
       Q 133.598776 206.400207 143.611124 212.255080
       Q 151.113490 216.653056 159.846283 221.760868
       Q 166.733357 225.797143 174.462652 230.318267
       Q 172.819193 240.858402 173.182291 251.480709
       Q 173.465399 261.245487 175.439840 270.820862
       Q 177.217340 279.657149 180.399925 288.134242
       Q 171.055768 294.804155 163.264514 302.421198
       Q 153.743628 311.466884 146.544261 321.644623
       Q 137.304607 334.157814 131.754328 347.980973
       Q 118.490793 331.195116 112.056013 309.672423
       Q 104.359689 284.822542 107.261218 257.638502
       Q 110.329595 228.015671 125.542217 201.675242
       z"
  />
  <path
    style="stroke:black; stroke-width:3; fill:stroke:black; stroke-width:3; fill:purple"
    d="M 88.663054 180.046459
       Q 77.648472 173.581543 82.972808 176.564449
       Q 87.917433 179.305807 132.375320 204.894709
       Q 195.640311 241.323631 300.000000 301.556049
       Q 300.000000 422.020884 300.000000 495.134355
       Q 300.000000 546.523626 300.000000 552.343813
       Q 300.000000 558.579915 300.000000 545.973246
       Q 243.006581 545.973246 197.282010 518.090542
       Q 158.761843 495.099570 139.536693 459.924252
       Q 124.134113 433.441280 122.525452 404.771681
       Q 98.420042 388.917747 83.121106 362.241500
       Q 62.195152 327.895778 61.500256 282.986449
       Q 60.166345 229.388089 88.663054 180.046459
       z"
  />
  <path
    style="stroke:black; stroke-width:3; fill:stroke:black; stroke-width:3; fill:purple"
    d="M 252.924198 413.718916
       Q 249.470443 409.574553 246.426904 405.083895
       Q 243.511578 400.805548 240.993540 396.242013
       Q 238.574636 391.881034 236.538058 387.287381
       Q 226.408294 389.187389 216.457937 389.260545
       Q 204.900432 389.462226 193.830243 387.093284
       Q 180.694521 384.466320 168.800320 378.450173
       Q 168.289276 385.673415 168.851481 392.930263
       Q 169.403179 400.860108 171.221955 408.690129
       Q 173.140665 417.252250 176.530645 425.510502
       Q 191.341879 427.722549 206.863935 426.087244
       Q 219.336692 425.040302 231.988232 421.415296
       Q 242.532821 418.565611 253.030632 413.893234
       z"
  />
  <path
    style="stroke:black; stroke-width:3; fill:stroke:black; stroke-width:3; fill:purple"
    d="M 89.146082 180.327963
       Q 93.059615 182.644704 100.309449 186.890930
       Q 105.594114 189.996519 112.913150 194.278591
       Q 118.527030 197.571134 125.461316 201.627092
       Q 110.329595 228.015671 107.261218 257.638502
       Q 104.359689 284.822542 112.056013 309.672423
       Q 118.490793 331.195116 131.754328 347.980973
       Q 128.402847 355.870557 126.294348 364.062954
       Q 123.758529 373.346326 122.842723 382.882377
       Q 121.622205 393.770260 122.525452 404.771681
       Q 98.420042 388.917747 83.121106 362.241500
       Q 62.195152 327.895778 61.500256 282.986449
       Q 60.166345 229.388089 88.663054 180.046459
       z"
  />
  <path
    style="stroke:black; stroke-width:3; fill:stroke:black; stroke-width:3; fill:purple"
    d="M 180.498245 288.314454
       Q 182.376659 293.402661 184.759984 298.308537
       Q 187.023156 302.996683 189.731717 307.482927
       Q 192.314069 311.781550 195.288730 315.864782
       Q 188.536974 323.613761 183.455278 332.116931
       Q 177.455538 341.941798 173.926194 352.629718
       Q 169.583808 365.228284 168.800320 378.450173
       Q 162.262634 375.238374 156.233463 371.082353
       Q 149.615012 366.597190 143.718010 361.067456
       Q 137.235762 355.083443 131.754328 347.980973
       Q 137.304607 334.157814 146.544261 321.644623
       Q 153.743628 311.466884 163.264514 302.421198
       Q 171.055768 294.804155 180.399925 288.134242
       z"
  />
  <path
    style="stroke:black; stroke-width:3; fill:stroke:black; stroke-width:3; fill:purple"
    d="M 300.000000 545.418393
       Q 300.000000 540.958911 300.000000 532.652157
       Q 300.000000 526.607427 300.000000 518.216695
       Q 300.000000 511.788889 300.000000 503.838233
       Q 269.574756 503.746305 242.400602 491.630340
       Q 217.421677 480.587697 199.782013 461.568690
       Q 184.391177 445.300654 176.530645 425.510502
       Q 167.988288 424.412160 159.805891 422.087693
       Q 150.462821 419.584411 141.712181 415.554564
       Q 131.636052 411.109089 122.525452 404.771681
       Q 124.134113 433.441280 139.536693 459.924252
       Q 158.761843 495.099570 197.282010 518.090542
       Q 243.006581 545.973246 300.000000 545.973246
       z"
  />
  <path
    style="stroke:black; stroke-width:3; fill:stroke:black; stroke-width:3; fill:purple"
    d="M 176.530645 425.510502
       Q 173.140665 417.252250 171.221955 408.690129
       Q 169.403179 400.860108 168.851481 392.930263
       Q 168.289276 385.673415 168.800320 378.450173
       Q 162.262634 375.238374 156.233463 371.082353
       Q 149.615012 366.597190 143.718010 361.067456
       Q 137.235762 355.083443 131.754328 347.980973
       Q 128.402847 355.870557 126.294348 364.062954
       Q 123.758529 373.346326 122.842723 382.882377
       Q 121.622205 393.770260 122.525452 404.771681
       Q 131.636052 411.109089 141.712181 415.554564
       Q 150.462821 419.584411 159.805891 422.087693
       Q 167.988288 424.412160 176.530645 425.510502
       z"
  />
  <path
    style="stroke:black; stroke-width:3; fill:stroke:black; stroke-width:3; fill:red"
    d="M 305.674367 234.363428
       Q 302.345866 238.938776 299.172521 243.796715
       Q 296.149839 248.415702 293.286325 253.268773
       Q 290.530779 257.933536 287.939713 262.790707
       Q 282.400254 263.140077 276.924099 263.807997
       Q 271.348804 264.487225 265.878661 265.490270
       Q 260.259789 266.518766 254.791295 267.879178
       Q 253.459851 260.104657 253.020912 252.427717
       Q 252.532077 244.148948 253.072835 236.118798
       Q 253.639688 227.292810 255.414127 218.920089
       Q 264.666270 219.366479 273.810364 221.478898
       Q 282.360945 223.434951 290.588156 226.807715
       Q 298.371823 229.985806 305.674367 234.363428
       z"
  />
  <path
    style="stroke:black; stroke-width:3; fill:stroke:black; stroke-width:3; fill:red"
    d="M 320.476632 216.141936
       Q 324.916787 211.250127 329.507596 206.857969
       Q 334.572162 201.974348 339.787216 197.711509
       Q 345.633966 192.877632 351.629134 188.831602
       Q 348.679585 180.604716 344.670690 173.103217
       Q 340.179345 164.484860 334.414820 156.927917
       Q 327.852003 148.091048 319.767160 140.837622
       Q 305.494489 146.405720 293.657939 155.915531
       Q 283.638793 163.724139 275.852808 173.953492
       Q 269.137921 182.562219 264.308165 192.664706
       Q 274.911433 194.531813 285.264806 198.144307
       Q 294.808548 201.436389 303.933150 206.161676
       Q 312.474076 210.559276 320.476632 216.141936
       z"
  />
  <path
    style="stroke:black; stroke-width:3; fill:stroke:black; stroke-width:3; fill:red"
    d="M 195.361641 316.002992
       Q 199.739406 322.061983 204.905311 327.573023
       Q 209.769451 332.787088 215.276643 337.437896
       Q 220.504640 341.869272 226.253731 345.731668
       Q 231.198167 342.911022 236.359619 339.961732
       Q 241.141261 337.230600 246.098322 334.394653
       Q 250.754008 331.731905 255.550062 328.984428
       Q 251.674052 322.273174 248.274411 315.333279
       Q 244.817502 308.278543 241.890817 301.073197
       Q 238.861327 293.624833 236.427227 286.106473
       Q 229.035057 289.488917 222.316500 293.617855
       Q 214.959076 298.113450 208.519093 303.406379
       Q 201.312889 309.278515 195.361641 316.002992
       z"
  />
  <path
    style="stroke:black; stroke-width:3; fill:stroke:black; stroke-width:3; fill:red"
    d="M 180.399925 288.134242
       Q 177.217340 279.657149 175.439840 270.820862
       Q 173.465399 261.245487 173.182291 251.480709
       Q 172.819193 240.858402 174.462652 230.318267
       Q 182.747513 223.667661 192.105552 218.715363
       Q 200.681745 214.120788 209.938966 211.086137
       Q 218.458417 208.248837 227.369293 206.807479
       Q 226.282802 216.659002 226.441805 227.044809
       Q 226.521110 236.199831 227.607881 245.677821
       Q 228.552989 254.245887 230.339370 262.988882
       Q 221.899252 265.766734 214.036254 269.176892
       Q 205.315752 272.916594 197.383198 277.359357
       Q 188.346904 282.344449 180.399925 288.134242
       z"
  />
  <path
    style="stroke:black; stroke-width:3; fill:stroke:black; stroke-width:3; fill:red"
    d="M 320.380468 216.261159
       Q 317.735953 219.156465 315.151770 222.232557
       Q 312.688929 225.156068 310.287135 228.239106
       Q 307.986337 231.186041 305.747431 234.274179
       Q 298.371823 229.985806 290.588156 226.807715
       Q 282.360945 223.434951 273.810364 221.478898
       Q 264.666270 219.366479 255.414127 218.920089
       Q 256.323506 214.552313 257.550062 210.336759
       Q 258.838904 205.859314 260.473992 201.574025
       Q 262.201660 196.998554 264.308165 192.664706
       Q 274.911433 194.531813 285.264806 198.144307
       Q 294.808548 201.436389 303.933150 206.161676
       Q 312.474076 210.559276 320.476632 216.141936
       z"
  />
  <path
    style="stroke:black; stroke-width:3; fill:stroke:black; stroke-width:3; fill:red"
    d="M 180.498245 288.314454
       Q 182.376659 293.402661 184.759984 298.308537
       Q 187.023156 302.996683 189.731717 307.482927
       Q 192.314069 311.781550 195.288730 315.864782
       Q 201.312889 309.278515 208.519093 303.406379
       Q 214.959076 298.113450 222.316500 293.617855
       Q 229.035057 289.488917 236.427227 286.106473
       Q 235.211730 282.362460 234.147329 278.617053
       Q 233.048959 274.762837 232.111888 270.917669
       Q 231.139171 266.943084 230.339370 262.988882
       Q 221.899252 265.766734 214.036254 269.176892
       Q 205.315752 272.916594 197.383198 277.359357
       Q 188.346904 282.344449 180.399925 288.134242
       z"
  />
  <path
    style="stroke:black; stroke-width:3; fill:stroke:black; stroke-width:3; fill:red"
    d="M 255.658652 328.922125
       Q 258.596846 327.239260 261.584981 325.525976
       Q 264.492101 323.859299 267.441401 322.166656
       Q 270.323821 320.512507 273.241133 318.836577
       Q 269.738804 312.557374 266.729327 306.048512
       Q 263.674016 299.441619 261.266552 292.642447
       Q 258.783310 285.635128 257.021815 278.530579
       Q 253.537632 279.521329 250.141428 280.669918
       Q 246.655430 281.847384 243.273972 283.186130
       Q 239.789180 284.563661 236.427227 286.106473
       Q 238.861327 293.624833 241.890817 301.073197
       Q 244.817502 308.278543 248.274411 315.333279
       Q 251.674052 322.273174 255.550062 328.984428
       z"
  />
  <path
    style="stroke:black; stroke-width:3; fill:stroke:black; stroke-width:3; fill:red"
    d="M 227.574047 206.803401
       Q 232.906216 205.911483 238.333080 205.547516
       Q 243.511578 205.187818 248.738177 205.314117
       Q 253.739434 205.424442 258.750672 205.981371
       Q 256.017653 214.558027 254.497707 223.795092
       Q 253.098234 232.076065 252.851972 240.746139
       Q 252.605189 248.677582 253.346264 256.811412
       Q 249.503669 257.616180 245.736689 258.550248
       Q 241.858604 259.509067 238.070252 260.600849
       Q 234.152148 261.726158 230.339370 262.988882
       Q 228.552989 254.245887 227.607881 245.677821
       Q 226.521110 236.199831 226.441805 227.044809
       Q 226.282802 216.659002 227.369293 206.807479
       z"
  />
  <path
    style="stroke:black; stroke-width:3; fill:stroke:black; stroke-width:3; fill:red"
    d="M 253.346264 256.811412
       Q 253.679106 260.513459 254.217639 264.237334
       Q 254.738255 267.852092 255.451987 271.474763
       Q 256.145956 275.005055 257.021815 278.530579
       Q 253.537632 279.521329 250.141428 280.669918
       Q 246.655430 281.847384 243.273972 283.186130
       Q 239.789180 284.563661 236.427227 286.106473
       Q 235.211730 282.362460 234.147329 278.617053
       Q 233.048959 274.762837 232.111888 270.917669
       Q 231.139171 266.943084 230.339370 262.988882
       Q 234.152148 261.726158 238.070252 260.600849
       Q 241.858604 259.509067 245.736689 258.550248
       Q 249.503669 257.616180 253.346264 256.811412
       z"
  />
  <path
    style="stroke:black; stroke-width:3; fill:stroke:black; stroke-width:3; fill:blue"
    d="M 254.791295 267.879178
       Q 260.259789 266.518766 265.878661 265.490270
       Q 271.348804 264.487225 276.924099 263.807997
       Q 282.400254 263.140077 287.939713 262.790707
       Q 290.843581 267.143482 293.721196 271.622265
       Q 296.518177 275.974628 299.276214 280.425260
       Q 301.983384 284.793414 304.638858 289.234159
       Q 298.707194 292.744009 292.714413 296.181952
       Q 286.701235 299.631591 280.685477 302.974894
       Q 274.541918 306.389009 268.454589 309.658778
       Q 265.246854 303.159355 262.668740 296.442197
       Q 260.021516 289.548944 258.073999 282.531235
       Q 256.039991 275.216341 254.791295 267.879178
       z"
  />
  <path
    style="stroke:black; stroke-width:3; fill:stroke:black; stroke-width:3; fill:blue"
    d="M 255.550062 328.984428
       Q 250.754008 331.731905 246.098322 334.394653
       Q 241.141261 337.230600 236.359619 339.961732
       Q 231.198167 342.911022 226.253731 345.731668
       Q 226.710415 352.614479 227.918743 359.327505
       Q 229.177153 366.391235 231.243457 373.177132
       Q 233.415617 380.371844 236.455241 387.155949
       Q 245.295236 385.433295 254.021387 382.192924
       Q 261.860843 379.323162 269.464528 375.253967
       Q 276.429868 371.552328 283.080964 366.886724
       Q 277.802437 361.050787 272.876567 354.724562
       Q 268.109625 348.608508 263.732445 342.098637
       Q 259.426072 335.695682 255.550062 328.984428
       z"
  />
  <path
    style="stroke:black; stroke-width:3; fill:stroke:black; stroke-width:3; fill:blue"
    d="M 308.085631 360.157532
       Q 312.010994 356.125209 315.721066 351.791655
       Q 319.334599 347.573916 322.717173 343.098026
       Q 326.040324 338.702211 329.116109 334.087025
       Q 326.811018 329.420565 324.380281 324.708015
       Q 322.018598 320.128228 319.548899 315.527112
       Q 317.125153 311.011161 314.609221 306.497694
       Q 308.607970 309.887055 302.632002 313.354110
       Q 296.635701 316.832971 290.723790 320.356084
       Q 284.686552 323.954294 278.796115 327.564977
       Q 282.818781 333.584887 287.339468 339.159198
       Q 291.978032 344.881176 297.068994 350.050488
       Q 302.373856 355.442740 308.085631 360.157532
       z"
  />
  <path
    style="stroke:black; stroke-width:3; fill:stroke:black; stroke-width:3; fill:blue"
    d="M 346.969368 413.893234
       Q 341.241076 420.845190 334.499126 426.760206
       Q 327.216346 433.213573 318.923261 438.298345
       Q 309.928321 443.879342 300.000000 447.684322
       Q 290.071679 443.879342 281.076739 438.298345
       Q 272.783654 433.213573 265.500874 426.760206
       Q 258.758924 420.845190 253.030632 413.893234
       Q 262.064101 409.984682 270.941392 404.724280
       Q 278.794642 400.144201 286.428373 394.522772
       Q 293.346263 389.476173 300.000000 383.605230
       Q 306.653737 389.476173 313.571627 394.522772
       Q 321.205358 400.144201 329.058608 404.724280
       Q 337.935899 409.984682 346.969368 413.893234
       z"
  />
  <path
    style="stroke:black; stroke-width:3; fill:stroke:black; stroke-width:3; fill:blue"
    d="M 255.658652 328.922125
       Q 258.596846 327.239260 261.584981 325.525976
       Q 264.492101 323.859299 267.441401 322.166656
       Q 270.323821 320.512507 273.241133 318.836577
       Q 276.929992 325.008810 281.058469 330.859208
       Q 285.248913 336.798233 289.924468 342.263204
       Q 294.742290 347.897568 300.000000 352.946670
       Q 297.391676 355.453954 294.689441 357.804140
       Q 291.917175 360.217423 289.056333 362.457609
       Q 286.110073 364.767601 283.080964 366.886724
       Q 277.802437 361.050787 272.876567 354.724562
       Q 268.109625 348.608508 263.732445 342.098637
       Q 259.426072 335.695682 255.550062 328.984428
       z"
  />
  <path
    style="stroke:black; stroke-width:3; fill:stroke:black; stroke-width:3; fill:blue"
    d="M 347.075802 413.718916
       Q 350.529557 409.574553 353.573096 405.083895
       Q 356.488422 400.805548 359.006460 396.242013
       Q 361.425364 391.881034 363.461942 387.287381
       Q 354.704764 385.433295 345.978613 382.192924
       Q 338.139157 379.323162 330.535472 375.253967
       Q 323.570132 371.552328 316.919036 366.886724
       Q 314.291939 369.796108 311.589360 372.573171
       Q 308.809645 375.433801 305.958364 378.148108
       Q 303.012977 380.957662 300.000000 383.605230
       Q 306.653737 389.476173 313.571627 394.522772
       Q 321.205358 400.144201 329.058608 404.724280
       Q 337.935899 409.984682 346.969368 413.893234
       z"
  />
  <path
    style="stroke:black; stroke-width:3; fill:stroke:black; stroke-width:3; fill:blue"
    d="M 314.552819 306.400034
       Q 312.956090 303.534348 311.325805 300.677884
       Q 309.698720 297.827024 308.041811 294.991698
       Q 306.381647 292.150796 304.695261 289.331819
       Q 298.707194 292.744009 292.714413 296.181952
       Q 286.701235 299.631591 280.685477 302.974894
       Q 274.541918 306.389009 268.454589 309.658778
       Q 269.981225 312.752195 271.643099 315.779751
       Q 273.302106 318.802095 275.090252 321.748444
       Q 276.881478 324.699880 278.796115 327.564977
       Q 284.686552 323.954294 290.723790 320.356084
       Q 296.635701 316.832971 302.632002 313.354110
       Q 308.607970 309.887055 314.609221 306.497694
       z"
  />
  <path
    style="stroke:black; stroke-width:3; fill:stroke:black; stroke-width:3; fill:blue"
    d="M 252.924198 413.718916
       Q 249.470443 409.574553 246.426904 405.083895
       Q 243.511578 400.805548 240.993540 396.242013
       Q 238.574636 391.881034 236.538058 387.287381
       Q 245.295236 385.433295 254.021387 382.192924
       Q 261.860843 379.323162 269.464528 375.253967
       Q 276.429868 371.552328 283.080964 366.886724
       Q 285.708061 369.796108 288.410640 372.573171
       Q 291.190355 375.433801 294.041636 378.148108
       Q 296.987023 380.957662 300.000000 383.605230
       Q 293.346263 389.476173 286.428373 394.522772
       Q 278.794642 400.144201 270.941392 404.724280
       Q 262.064101 409.984682 253.030632 413.893234
       z"
  />
  <path
    style="stroke:black; stroke-width:3; fill:stroke:black; stroke-width:3; fill:blue"
    d="M 283.080964 366.886724
       Q 286.110073 364.767601 289.056333 362.457609
       Q 291.917175 360.217423 294.689441 357.804140
       Q 297.391676 355.453954 300.000000 352.946670
       Q 302.608324 355.453954 305.310559 357.804140
       Q 308.082825 360.217423 310.943667 362.457609
       Q 313.889927 364.767601 316.919036 366.886724
       Q 314.291939 369.796108 311.589360 372.573171
       Q 308.809645 375.433801 305.958364 378.148108
       Q 303.012977 380.957662 300.000000 383.605230
       Q 296.987023 380.957662 294.041636 378.148108
       Q 291.190355 375.433801 288.410640 372.573171
       Q 285.708061 369.796108 283.080964 366.886724
       z"
  />
  <path
    style="stroke:black; stroke-width:3; fill:stroke:black; stroke-width:3; fill:yellow"
    d="M 304.638858 289.234159
       Q 301.983384 284.793414 299.276214 280.425260
       Q 296.518177 275.974628 293.721196 271.622265
       Q 290.843581 267.143482 287.939713 262.790707
       Q 290.530779 257.933536 293.286325 253.268773
       Q 296.149839 248.415702 299.172521 243.796715
       Q 302.345866 238.938776 305.674367 234.363428
       Q 312.665287 238.546179 319.053135 243.738913
       Q 325.240822 248.764407 330.724917 254.631624
       Q 336.099702 260.379903 340.682200 266.816344
       Q 334.738319 270.712875 328.531792 274.633743
       Q 322.634051 278.358410 316.548487 282.075213
       Q 310.654626 285.674444 304.638858 289.234159
       z"
  />
  <path
    style="stroke:black; stroke-width:3; fill:stroke:black; stroke-width:3; fill:yellow"
    d="M 314.609221 306.497694
       Q 317.125153 311.011161 319.548899 315.527112
       Q 322.018598 320.128228 324.380281 324.708015
       Q 326.811018 329.420565 329.116109 334.087025
       Q 334.608806 334.253985 340.013886 334.176852
       Q 345.635814 334.099934 351.131456 333.762842
       Q 356.909014 333.414057 362.516376 332.784523
       Q 362.403508 324.667172 361.110403 316.560449
       Q 359.861916 308.710317 357.528439 301.041524
       Q 355.243270 293.526707 351.961637 286.346521
       Q 345.638755 289.586818 339.157371 293.031777
       Q 332.999892 296.306710 326.749030 299.737302
       Q 320.695686 303.060390 314.609221 306.497694
       z"
  />
  <path
    style="stroke:black; stroke-width:3; fill:stroke:black; stroke-width:3; fill:yellow"
    d="M 399.827380 222.796614
       Q 393.384995 215.073272 385.693847 208.599988
       Q 378.058133 202.172832 369.426899 197.175256
       Q 360.886434 192.229252 351.629134 188.831602
       Q 345.633966 192.877632 339.787216 197.711509
       Q 334.572162 201.974348 329.507596 206.857969
       Q 324.916787 211.250127 320.476632 216.141936
       Q 328.078415 221.428966 335.049733 227.698904
       Q 341.766491 233.730865 347.774418 240.575522
       Q 353.643263 247.257774 358.730305 254.603639
       Q 365.510412 249.858905 371.764325 245.230850
       Q 378.937444 239.920792 385.406433 234.779700
       Q 393.103251 228.667152 399.827380 222.796614
       z"
  />
  <path
    style="stroke:black; stroke-width:3; fill:stroke:black; stroke-width:3; fill:yellow"
    d="M 419.302187 256.516954
       Q 422.772921 265.958030 424.537470 275.857143
       Q 426.289765 285.685187 426.306905 295.662142
       Q 426.324735 305.534699 424.643756 315.255337
       Q 418.179128 318.488504 411.104460 321.196258
       Q 404.838408 323.639311 398.107704 325.638038
       Q 392.038142 327.469757 385.608652 328.917062
       Q 384.846756 319.722506 382.913798 310.574823
       Q 381.059477 301.766088 378.142129 293.156763
       Q 375.295834 284.748880 371.479032 276.677871
       Q 378.943307 273.117764 386.038149 269.945764
       Q 394.180716 266.314292 401.820149 263.199804
       Q 410.911130 259.501231 419.302187 256.516954
       z"
  />
  <path
    style="stroke:black; stroke-width:3; fill:stroke:black; stroke-width:3; fill:yellow"
    d="M 314.552819 306.400034
       Q 312.956090 303.534348 311.325805 300.677884
       Q 309.698720 297.827024 308.041811 294.991698
       Q 306.381647 292.150796 304.695261 289.331819
       Q 310.654626 285.674444 316.548487 282.075213
       Q 322.634051 278.358410 328.531792 274.633743
       Q 334.738319 270.712875 340.682200 266.816344
       Q 342.867002 269.884907 344.854303 273.087563
       Q 346.838908 276.285864 348.616831 279.602325
       Q 350.397179 282.923297 351.961637 286.346521
       Q 345.638755 289.586818 339.157371 293.031777
       Q 332.999892 296.306710 326.749030 299.737302
       Q 320.695686 303.060390 314.609221 306.497694
       z"
  />
  <path
    style="stroke:black; stroke-width:3; fill:stroke:black; stroke-width:3; fill:yellow"
    d="M 419.192018 256.326198
       Q 416.976291 250.262848 414.076897 244.496625
       Q 411.175235 238.725880 407.627068 233.328840
       Q 404.081682 227.936025 399.937549 222.987370
       Q 393.103251 228.667152 385.406433 234.779700
       Q 378.937444 239.920792 371.764325 245.230850
       Q 365.510412 249.858905 358.730305 254.603639
       Q 361.153184 258.102076 363.382845 261.730345
       Q 365.608987 265.352865 367.633584 269.090436
       Q 369.661400 272.833926 371.479032 276.677871
       Q 378.943307 273.117764 386.038149 269.945764
       Q 394.180716 266.314292 401.820149 263.199804
       Q 410.911130 259.501231 419.302187 256.516954
       z"
  />
  <path
    style="stroke:black; stroke-width:3; fill:stroke:black; stroke-width:3; fill:yellow"
    d="M 320.380468 216.261159
       Q 317.735953 219.156465 315.151770 222.232557
       Q 312.688929 225.156068 310.287135 228.239106
       Q 307.986337 231.186041 305.747431 234.274179
       Q 312.665287 238.546179 319.053135 243.738913
       Q 325.240822 248.764407 330.724917 254.631624
       Q 336.099702 260.379903 340.682200 266.816344
       Q 343.687870 264.845257 346.618039 262.885563
       Q 349.666959 260.845894 352.629408 258.821609
       Q 355.729265 256.702806 358.730305 254.603639
       Q 353.643263 247.257774 347.774418 240.575522
       Q 341.766491 233.730865 335.049733 227.698904
       Q 328.078415 221.428966 320.476632 216.141936
       z"
  />
  <path
    style="stroke:black; stroke-width:3; fill:stroke:black; stroke-width:3; fill:yellow"
    d="M 385.457857 328.941693
       Q 381.644937 329.813922 377.704483 330.541652
       Q 373.956499 331.239956 370.099703 331.803678
       Q 366.410995 332.347471 362.629726 332.765030
       Q 362.403508 324.667172 361.110403 316.560449
       Q 359.861916 308.710317 357.528439 301.041524
       Q 355.243270 293.526707 351.961637 286.346521
       Q 355.159904 284.708915 358.309187 283.128613
       Q 361.586867 281.485039 364.806655 279.906331
       Q 368.176698 278.255351 371.479032 276.677871
       Q 375.295834 284.748880 378.142129 293.156763
       Q 381.059477 301.766088 382.913798 310.574823
       Q 384.846756 319.722506 385.608652 328.917062
       z"
  />
  <path
    style="stroke:black; stroke-width:3; fill:stroke:black; stroke-width:3; fill:yellow"
    d="M 351.961637 286.346521
       Q 350.397179 282.923297 348.616831 279.602325
       Q 346.838908 276.285864 344.854303 273.087563
       Q 342.867002 269.884907 340.682200 266.816344
       Q 343.687870 264.845257 346.618039 262.885563
       Q 349.666959 260.845894 352.629408 258.821609
       Q 355.729265 256.702806 358.730305 254.603639
       Q 361.153184 258.102076 363.382845 261.730345
       Q 365.608987 265.352865 367.633584 269.090436
       Q 369.661400 272.833926 371.479032 276.677871
       Q 368.176698 278.255351 364.806655 279.906331
       Q 361.586867 281.485039 358.309187 283.128613
       Q 355.159904 284.708915 351.961637 286.346521
       z"
  />
</svg>